<svg width="1512" height="275" viewBox="0 0 1512 275" fill="none" xmlns="http://www.w3.org/2000/svg">
<g clip-path="url(#clip0_8221_2549)">
<path d="M68.6171 109.972V61.2379H141.522C166.875 61.2379 175.843 67.8656 175.843 85.408C175.843 102.95 166.875 109.972 141.522 109.972H68.6171ZM68.6171 215.646V166.123H144.651C170.004 166.123 179.342 172.751 179.342 190.687C179.342 208.624 169.979 215.646 144.651 215.646H68.6171ZM0 274.901H155.566C217.161 274.901 252.271 246.838 252.271 199.656C252.271 167.675 235.517 147.028 203.931 137.666V133.379C231.23 123.622 247.22 104.527 247.22 76.4643C247.22 29.2821 216.816 1.98291 151.697 1.98291H0.0246623V274.901H0Z" fill="#FF693C"/>
<path d="M270.454 122.858V274.925H335.178V138.454H432.253V79.963H313.324C285.631 79.963 270.429 95.1648 270.429 122.858H270.454Z" fill="#FF693C"/>
<path d="M551.848 220.328C519.867 220.328 505.06 206.678 505.06 177.433C505.06 148.187 519.867 134.537 551.848 134.537C583.828 134.537 598.636 148.187 598.636 177.433C598.636 206.678 583.828 220.328 551.848 220.328ZM551.848 278.819C619.701 278.819 664.912 240.999 664.912 177.457C664.912 113.915 624.752 76.0955 551.848 76.0955C483.994 76.0955 438.782 113.915 438.782 177.457C438.782 240.999 478.943 278.819 551.848 278.819Z" fill="#FF693C"/>
<path d="M720.94 33.1754V79.9634H670.26V138.455H720.94V232.031C720.94 259.724 736.142 274.926 763.836 274.926H855.859V218.012H785.689V138.479H855.859V79.988H785.689V17.604L720.965 33.2L720.94 33.1754Z" fill="#FF693C"/>
<path d="M876.974 274.901H941.698V175.091C941.698 147.398 955.742 134.537 986.146 134.537C1013.84 134.537 1026.7 147.398 1026.7 175.091V274.901H1092.21V161.836C1092.21 104.922 1063.36 76.0702 1007.21 76.0702C981.489 76.0702 960.423 85.0385 945.221 101.793H941.723V1.98303H876.998V274.901H876.974Z" fill="#FF693C"/>
<path d="M1175 157.154C1177.34 138.06 1191.38 129.091 1221 129.091C1250.61 129.091 1265.44 137.271 1268.18 157.154H1175ZM1331.75 179.772C1331.75 111.919 1293.14 76.0699 1220.23 76.0699C1151.62 76.0699 1109.9 114.284 1109.9 177.432C1109.9 240.58 1150.46 278.793 1221.81 278.793C1278.72 278.793 1317.73 254.623 1326.7 216.015H1257.29C1251.06 222.643 1239.35 226.142 1221.02 226.142C1191.78 226.142 1177.73 217.567 1175.02 196.107H1331.77V179.723L1331.75 179.772Z" fill="#FF693C"/>
<path d="M1350.2 122.858V274.925H1414.93V138.454H1512V79.963H1393.07C1365.38 79.963 1350.18 95.1648 1350.18 122.858H1350.2Z" fill="#FF693C"/>
</g>
<defs>
<clipPath id="clip0_8221_2549">
<path d="M0 0H1512V214.909C1512 248.046 1485.14 274.909 1452 274.909H60C26.863 274.909 0 248.046 0 214.909V0Z" fill="white"/>
</clipPath>
</defs>
</svg>
